<?xml version="1.0" encoding="UTF-8"?>
<svg xmlns="http://www.w3.org/2000/svg" width="248" height="248" viewBox="0 0 248 248">
<rect width="100%" height="100%" fill="#ffffff"/>
<rect x="8" y="8" width="8" height="8" fill="#000000"/>
<rect x="16" y="8" width="8" height="8" fill="#000000"/>
<rect x="24" y="8" width="8" height="8" fill="#000000"/>
<rect x="32" y="8" width="8" height="8" fill="#000000"/>
<rect x="40" y="8" width="8" height="8" fill="#000000"/>
<rect x="48" y="8" width="8" height="8" fill="#000000"/>
<rect x="56" y="8" width="8" height="8" fill="#000000"/>
<rect x="80" y="8" width="8" height="8" fill="#000000"/>
<rect x="104" y="8" width="8" height="8" fill="#000000"/>
<rect x="112" y="8" width="8" height="8" fill="#000000"/>
<rect x="136" y="8" width="8" height="8" fill="#000000"/>
<rect x="144" y="8" width="8" height="8" fill="#000000"/>
<rect x="168" y="8" width="8" height="8" fill="#000000"/>
<rect x="184" y="8" width="8" height="8" fill="#000000"/>
<rect x="192" y="8" width="8" height="8" fill="#000000"/>
<rect x="200" y="8" width="8" height="8" fill="#000000"/>
<rect x="208" y="8" width="8" height="8" fill="#000000"/>
<rect x="216" y="8" width="8" height="8" fill="#000000"/>
<rect x="224" y="8" width="8" height="8" fill="#000000"/>
<rect x="232" y="8" width="8" height="8" fill="#000000"/>
<rect x="8" y="16" width="8" height="8" fill="#000000"/>
<rect x="56" y="16" width="8" height="8" fill="#000000"/>
<rect x="88" y="16" width="8" height="8" fill="#000000"/>
<rect x="96" y="16" width="8" height="8" fill="#000000"/>
<rect x="104" y="16" width="8" height="8" fill="#000000"/>
<rect x="120" y="16" width="8" height="8" fill="#000000"/>
<rect x="128" y="16" width="8" height="8" fill="#000000"/>
<rect x="136" y="16" width="8" height="8" fill="#000000"/>
<rect x="152" y="16" width="8" height="8" fill="#000000"/>
<rect x="160" y="16" width="8" height="8" fill="#000000"/>
<rect x="168" y="16" width="8" height="8" fill="#000000"/>
<rect x="184" y="16" width="8" height="8" fill="#000000"/>
<rect x="232" y="16" width="8" height="8" fill="#000000"/>
<rect x="8" y="24" width="8" height="8" fill="#000000"/>
<rect x="24" y="24" width="8" height="8" fill="#000000"/>
<rect x="32" y="24" width="8" height="8" fill="#000000"/>
<rect x="40" y="24" width="8" height="8" fill="#000000"/>
<rect x="56" y="24" width="8" height="8" fill="#000000"/>
<rect x="72" y="24" width="8" height="8" fill="#000000"/>
<rect x="80" y="24" width="8" height="8" fill="#000000"/>
<rect x="88" y="24" width="8" height="8" fill="#000000"/>
<rect x="104" y="24" width="8" height="8" fill="#000000"/>
<rect x="112" y="24" width="8" height="8" fill="#000000"/>
<rect x="120" y="24" width="8" height="8" fill="#000000"/>
<rect x="136" y="24" width="8" height="8" fill="#000000"/>
<rect x="144" y="24" width="8" height="8" fill="#000000"/>
<rect x="152" y="24" width="8" height="8" fill="#000000"/>
<rect x="168" y="24" width="8" height="8" fill="#000000"/>
<rect x="184" y="24" width="8" height="8" fill="#000000"/>
<rect x="200" y="24" width="8" height="8" fill="#000000"/>
<rect x="208" y="24" width="8" height="8" fill="#000000"/>
<rect x="216" y="24" width="8" height="8" fill="#000000"/>
<rect x="232" y="24" width="8" height="8" fill="#000000"/>
<rect x="8" y="32" width="8" height="8" fill="#000000"/>
<rect x="24" y="32" width="8" height="8" fill="#000000"/>
<rect x="32" y="32" width="8" height="8" fill="#000000"/>
<rect x="40" y="32" width="8" height="8" fill="#000000"/>
<rect x="56" y="32" width="8" height="8" fill="#000000"/>
<rect x="80" y="32" width="8" height="8" fill="#000000"/>
<rect x="88" y="32" width="8" height="8" fill="#000000"/>
<rect x="96" y="32" width="8" height="8" fill="#000000"/>
<rect x="112" y="32" width="8" height="8" fill="#000000"/>
<rect x="120" y="32" width="8" height="8" fill="#000000"/>
<rect x="128" y="32" width="8" height="8" fill="#000000"/>
<rect x="144" y="32" width="8" height="8" fill="#000000"/>
<rect x="152" y="32" width="8" height="8" fill="#000000"/>
<rect x="160" y="32" width="8" height="8" fill="#000000"/>
<rect x="184" y="32" width="8" height="8" fill="#000000"/>
<rect x="200" y="32" width="8" height="8" fill="#000000"/>
<rect x="208" y="32" width="8" height="8" fill="#000000"/>
<rect x="216" y="32" width="8" height="8" fill="#000000"/>
<rect x="232" y="32" width="8" height="8" fill="#000000"/>
<rect x="8" y="40" width="8" height="8" fill="#000000"/>
<rect x="24" y="40" width="8" height="8" fill="#000000"/>
<rect x="32" y="40" width="8" height="8" fill="#000000"/>
<rect x="40" y="40" width="8" height="8" fill="#000000"/>
<rect x="56" y="40" width="8" height="8" fill="#000000"/>
<rect x="88" y="40" width="8" height="8" fill="#000000"/>
<rect x="120" y="40" width="8" height="8" fill="#000000"/>
<rect x="152" y="40" width="8" height="8" fill="#000000"/>
<rect x="184" y="40" width="8" height="8" fill="#000000"/>
<rect x="200" y="40" width="8" height="8" fill="#000000"/>
<rect x="208" y="40" width="8" height="8" fill="#000000"/>
<rect x="216" y="40" width="8" height="8" fill="#000000"/>
<rect x="232" y="40" width="8" height="8" fill="#000000"/>
<rect x="8" y="48" width="8" height="8" fill="#000000"/>
<rect x="56" y="48" width="8" height="8" fill="#000000"/>
<rect x="80" y="48" width="8" height="8" fill="#000000"/>
<rect x="112" y="48" width="8" height="8" fill="#000000"/>
<rect x="144" y="48" width="8" height="8" fill="#000000"/>
<rect x="184" y="48" width="8" height="8" fill="#000000"/>
<rect x="232" y="48" width="8" height="8" fill="#000000"/>
<rect x="8" y="56" width="8" height="8" fill="#000000"/>
<rect x="16" y="56" width="8" height="8" fill="#000000"/>
<rect x="24" y="56" width="8" height="8" fill="#000000"/>
<rect x="32" y="56" width="8" height="8" fill="#000000"/>
<rect x="40" y="56" width="8" height="8" fill="#000000"/>
<rect x="48" y="56" width="8" height="8" fill="#000000"/>
<rect x="56" y="56" width="8" height="8" fill="#000000"/>
<rect x="72" y="56" width="8" height="8" fill="#000000"/>
<rect x="88" y="56" width="8" height="8" fill="#000000"/>
<rect x="104" y="56" width="8" height="8" fill="#000000"/>
<rect x="120" y="56" width="8" height="8" fill="#000000"/>
<rect x="136" y="56" width="8" height="8" fill="#000000"/>
<rect x="152" y="56" width="8" height="8" fill="#000000"/>
<rect x="168" y="56" width="8" height="8" fill="#000000"/>
<rect x="184" y="56" width="8" height="8" fill="#000000"/>
<rect x="192" y="56" width="8" height="8" fill="#000000"/>
<rect x="200" y="56" width="8" height="8" fill="#000000"/>
<rect x="208" y="56" width="8" height="8" fill="#000000"/>
<rect x="216" y="56" width="8" height="8" fill="#000000"/>
<rect x="224" y="56" width="8" height="8" fill="#000000"/>
<rect x="232" y="56" width="8" height="8" fill="#000000"/>
<rect x="72" y="64" width="8" height="8" fill="#000000"/>
<rect x="80" y="64" width="8" height="8" fill="#000000"/>
<rect x="88" y="64" width="8" height="8" fill="#000000"/>
<rect x="104" y="64" width="8" height="8" fill="#000000"/>
<rect x="112" y="64" width="8" height="8" fill="#000000"/>
<rect x="120" y="64" width="8" height="8" fill="#000000"/>
<rect x="136" y="64" width="8" height="8" fill="#000000"/>
<rect x="144" y="64" width="8" height="8" fill="#000000"/>
<rect x="152" y="64" width="8" height="8" fill="#000000"/>
<rect x="168" y="64" width="8" height="8" fill="#000000"/>
<rect x="8" y="72" width="8" height="8" fill="#000000"/>
<rect x="16" y="72" width="8" height="8" fill="#000000"/>
<rect x="24" y="72" width="8" height="8" fill="#000000"/>
<rect x="40" y="72" width="8" height="8" fill="#000000"/>
<rect x="48" y="72" width="8" height="8" fill="#000000"/>
<rect x="56" y="72" width="8" height="8" fill="#000000"/>
<rect x="64" y="72" width="8" height="8" fill="#000000"/>
<rect x="72" y="72" width="8" height="8" fill="#000000"/>
<rect x="88" y="72" width="8" height="8" fill="#000000"/>
<rect x="96" y="72" width="8" height="8" fill="#000000"/>
<rect x="120" y="72" width="8" height="8" fill="#000000"/>
<rect x="128" y="72" width="8" height="8" fill="#000000"/>
<rect x="152" y="72" width="8" height="8" fill="#000000"/>
<rect x="160" y="72" width="8" height="8" fill="#000000"/>
<rect x="176" y="72" width="8" height="8" fill="#000000"/>
<rect x="184" y="72" width="8" height="8" fill="#000000"/>
<rect x="192" y="72" width="8" height="8" fill="#000000"/>
<rect x="200" y="72" width="8" height="8" fill="#000000"/>
<rect x="216" y="72" width="8" height="8" fill="#000000"/>
<rect x="224" y="72" width="8" height="8" fill="#000000"/>
<rect x="232" y="72" width="8" height="8" fill="#000000"/>
<rect x="16" y="80" width="8" height="8" fill="#000000"/>
<rect x="32" y="80" width="8" height="8" fill="#000000"/>
<rect x="64" y="80" width="8" height="8" fill="#000000"/>
<rect x="88" y="80" width="8" height="8" fill="#000000"/>
<rect x="96" y="80" width="8" height="8" fill="#000000"/>
<rect x="120" y="80" width="8" height="8" fill="#000000"/>
<rect x="128" y="80" width="8" height="8" fill="#000000"/>
<rect x="152" y="80" width="8" height="8" fill="#000000"/>
<rect x="160" y="80" width="8" height="8" fill="#000000"/>
<rect x="176" y="80" width="8" height="8" fill="#000000"/>
<rect x="184" y="80" width="8" height="8" fill="#000000"/>
<rect x="192" y="80" width="8" height="8" fill="#000000"/>
<rect x="200" y="80" width="8" height="8" fill="#000000"/>
<rect x="208" y="80" width="8" height="8" fill="#000000"/>
<rect x="216" y="80" width="8" height="8" fill="#000000"/>
<rect x="224" y="80" width="8" height="8" fill="#000000"/>
<rect x="232" y="80" width="8" height="8" fill="#000000"/>
<rect x="8" y="88" width="8" height="8" fill="#000000"/>
<rect x="24" y="88" width="8" height="8" fill="#000000"/>
<rect x="48" y="88" width="8" height="8" fill="#000000"/>
<rect x="56" y="88" width="8" height="8" fill="#000000"/>
<rect x="80" y="88" width="8" height="8" fill="#000000"/>
<rect x="88" y="88" width="8" height="8" fill="#000000"/>
<rect x="112" y="88" width="8" height="8" fill="#000000"/>
<rect x="144" y="88" width="8" height="8" fill="#000000"/>
<rect x="176" y="88" width="8" height="8" fill="#000000"/>
<rect x="184" y="88" width="8" height="8" fill="#000000"/>
<rect x="224" y="88" width="8" height="8" fill="#000000"/>
<rect x="16" y="96" width="8" height="8" fill="#000000"/>
<rect x="32" y="96" width="8" height="8" fill="#000000"/>
<rect x="40" y="96" width="8" height="8" fill="#000000"/>
<rect x="72" y="96" width="8" height="8" fill="#000000"/>
<rect x="80" y="96" width="8" height="8" fill="#000000"/>
<rect x="96" y="96" width="8" height="8" fill="#000000"/>
<rect x="128" y="96" width="8" height="8" fill="#000000"/>
<rect x="160" y="96" width="8" height="8" fill="#000000"/>
<rect x="176" y="96" width="8" height="8" fill="#000000"/>
<rect x="184" y="96" width="8" height="8" fill="#000000"/>
<rect x="200" y="96" width="8" height="8" fill="#000000"/>
<rect x="216" y="96" width="8" height="8" fill="#000000"/>
<rect x="224" y="96" width="8" height="8" fill="#000000"/>
<rect x="8" y="104" width="8" height="8" fill="#000000"/>
<rect x="24" y="104" width="8" height="8" fill="#000000"/>
<rect x="40" y="104" width="8" height="8" fill="#000000"/>
<rect x="48" y="104" width="8" height="8" fill="#000000"/>
<rect x="56" y="104" width="8" height="8" fill="#000000"/>
<rect x="80" y="104" width="8" height="8" fill="#000000"/>
<rect x="88" y="104" width="8" height="8" fill="#000000"/>
<rect x="104" y="104" width="8" height="8" fill="#000000"/>
<rect x="136" y="104" width="8" height="8" fill="#000000"/>
<rect x="168" y="104" width="8" height="8" fill="#000000"/>
<rect x="192" y="104" width="8" height="8" fill="#000000"/>
<rect x="200" y="104" width="8" height="8" fill="#000000"/>
<rect x="208" y="104" width="8" height="8" fill="#000000"/>
<rect x="16" y="112" width="8" height="8" fill="#000000"/>
<rect x="24" y="112" width="8" height="8" fill="#000000"/>
<rect x="40" y="112" width="8" height="8" fill="#000000"/>
<rect x="48" y="112" width="8" height="8" fill="#000000"/>
<rect x="72" y="112" width="8" height="8" fill="#000000"/>
<rect x="80" y="112" width="8" height="8" fill="#000000"/>
<rect x="96" y="112" width="8" height="8" fill="#000000"/>
<rect x="104" y="112" width="8" height="8" fill="#000000"/>
<rect x="112" y="112" width="8" height="8" fill="#000000"/>
<rect x="128" y="112" width="8" height="8" fill="#000000"/>
<rect x="136" y="112" width="8" height="8" fill="#000000"/>
<rect x="144" y="112" width="8" height="8" fill="#000000"/>
<rect x="160" y="112" width="8" height="8" fill="#000000"/>
<rect x="168" y="112" width="8" height="8" fill="#000000"/>
<rect x="176" y="112" width="8" height="8" fill="#000000"/>
<rect x="184" y="112" width="8" height="8" fill="#000000"/>
<rect x="192" y="112" width="8" height="8" fill="#000000"/>
<rect x="208" y="112" width="8" height="8" fill="#000000"/>
<rect x="216" y="112" width="8" height="8" fill="#000000"/>
<rect x="224" y="112" width="8" height="8" fill="#000000"/>
<rect x="232" y="112" width="8" height="8" fill="#000000"/>
<rect x="8" y="120" width="8" height="8" fill="#000000"/>
<rect x="24" y="120" width="8" height="8" fill="#000000"/>
<rect x="40" y="120" width="8" height="8" fill="#000000"/>
<rect x="48" y="120" width="8" height="8" fill="#000000"/>
<rect x="56" y="120" width="8" height="8" fill="#000000"/>
<rect x="64" y="120" width="8" height="8" fill="#000000"/>
<rect x="72" y="120" width="8" height="8" fill="#000000"/>
<rect x="80" y="120" width="8" height="8" fill="#000000"/>
<rect x="88" y="120" width="8" height="8" fill="#000000"/>
<rect x="96" y="120" width="8" height="8" fill="#000000"/>
<rect x="104" y="120" width="8" height="8" fill="#000000"/>
<rect x="120" y="120" width="8" height="8" fill="#000000"/>
<rect x="128" y="120" width="8" height="8" fill="#000000"/>
<rect x="136" y="120" width="8" height="8" fill="#000000"/>
<rect x="152" y="120" width="8" height="8" fill="#000000"/>
<rect x="160" y="120" width="8" height="8" fill="#000000"/>
<rect x="168" y="120" width="8" height="8" fill="#000000"/>
<rect x="200" y="120" width="8" height="8" fill="#000000"/>
<rect x="16" y="128" width="8" height="8" fill="#000000"/>
<rect x="32" y="128" width="8" height="8" fill="#000000"/>
<rect x="40" y="128" width="8" height="8" fill="#000000"/>
<rect x="80" y="128" width="8" height="8" fill="#000000"/>
<rect x="104" y="128" width="8" height="8" fill="#000000"/>
<rect x="112" y="128" width="8" height="8" fill="#000000"/>
<rect x="120" y="128" width="8" height="8" fill="#000000"/>
<rect x="136" y="128" width="8" height="8" fill="#000000"/>
<rect x="144" y="128" width="8" height="8" fill="#000000"/>
<rect x="152" y="128" width="8" height="8" fill="#000000"/>
<rect x="168" y="128" width="8" height="8" fill="#000000"/>
<rect x="176" y="128" width="8" height="8" fill="#000000"/>
<rect x="192" y="128" width="8" height="8" fill="#000000"/>
<rect x="200" y="128" width="8" height="8" fill="#000000"/>
<rect x="208" y="128" width="8" height="8" fill="#000000"/>
<rect x="224" y="128" width="8" height="8" fill="#000000"/>
<rect x="232" y="128" width="8" height="8" fill="#000000"/>
<rect x="8" y="136" width="8" height="8" fill="#000000"/>
<rect x="32" y="136" width="8" height="8" fill="#000000"/>
<rect x="56" y="136" width="8" height="8" fill="#000000"/>
<rect x="64" y="136" width="8" height="8" fill="#000000"/>
<rect x="72" y="136" width="8" height="8" fill="#000000"/>
<rect x="88" y="136" width="8" height="8" fill="#000000"/>
<rect x="96" y="136" width="8" height="8" fill="#000000"/>
<rect x="120" y="136" width="8" height="8" fill="#000000"/>
<rect x="128" y="136" width="8" height="8" fill="#000000"/>
<rect x="152" y="136" width="8" height="8" fill="#000000"/>
<rect x="160" y="136" width="8" height="8" fill="#000000"/>
<rect x="184" y="136" width="8" height="8" fill="#000000"/>
<rect x="232" y="136" width="8" height="8" fill="#000000"/>
<rect x="16" y="144" width="8" height="8" fill="#000000"/>
<rect x="24" y="144" width="8" height="8" fill="#000000"/>
<rect x="32" y="144" width="8" height="8" fill="#000000"/>
<rect x="64" y="144" width="8" height="8" fill="#000000"/>
<rect x="72" y="144" width="8" height="8" fill="#000000"/>
<rect x="96" y="144" width="8" height="8" fill="#000000"/>
<rect x="120" y="144" width="8" height="8" fill="#000000"/>
<rect x="128" y="144" width="8" height="8" fill="#000000"/>
<rect x="152" y="144" width="8" height="8" fill="#000000"/>
<rect x="160" y="144" width="8" height="8" fill="#000000"/>
<rect x="176" y="144" width="8" height="8" fill="#000000"/>
<rect x="200" y="144" width="8" height="8" fill="#000000"/>
<rect x="216" y="144" width="8" height="8" fill="#000000"/>
<rect x="8" y="152" width="8" height="8" fill="#000000"/>
<rect x="24" y="152" width="8" height="8" fill="#000000"/>
<rect x="56" y="152" width="8" height="8" fill="#000000"/>
<rect x="64" y="152" width="8" height="8" fill="#000000"/>
<rect x="112" y="152" width="8" height="8" fill="#000000"/>
<rect x="144" y="152" width="8" height="8" fill="#000000"/>
<rect x="176" y="152" width="8" height="8" fill="#000000"/>
<rect x="16" y="160" width="8" height="8" fill="#000000"/>
<rect x="24" y="160" width="8" height="8" fill="#000000"/>
<rect x="32" y="160" width="8" height="8" fill="#000000"/>
<rect x="48" y="160" width="8" height="8" fill="#000000"/>
<rect x="64" y="160" width="8" height="8" fill="#000000"/>
<rect x="96" y="160" width="8" height="8" fill="#000000"/>
<rect x="128" y="160" width="8" height="8" fill="#000000"/>
<rect x="160" y="160" width="8" height="8" fill="#000000"/>
<rect x="176" y="160" width="8" height="8" fill="#000000"/>
<rect x="184" y="160" width="8" height="8" fill="#000000"/>
<rect x="192" y="160" width="8" height="8" fill="#000000"/>
<rect x="200" y="160" width="8" height="8" fill="#000000"/>
<rect x="8" y="168" width="8" height="8" fill="#000000"/>
<rect x="24" y="168" width="8" height="8" fill="#000000"/>
<rect x="40" y="168" width="8" height="8" fill="#000000"/>
<rect x="56" y="168" width="8" height="8" fill="#000000"/>
<rect x="64" y="168" width="8" height="8" fill="#000000"/>
<rect x="104" y="168" width="8" height="8" fill="#000000"/>
<rect x="136" y="168" width="8" height="8" fill="#000000"/>
<rect x="168" y="168" width="8" height="8" fill="#000000"/>
<rect x="176" y="168" width="8" height="8" fill="#000000"/>
<rect x="184" y="168" width="8" height="8" fill="#000000"/>
<rect x="192" y="168" width="8" height="8" fill="#000000"/>
<rect x="200" y="168" width="8" height="8" fill="#000000"/>
<rect x="208" y="168" width="8" height="8" fill="#000000"/>
<rect x="216" y="168" width="8" height="8" fill="#000000"/>
<rect x="224" y="168" width="8" height="8" fill="#000000"/>
<rect x="232" y="168" width="8" height="8" fill="#000000"/>
<rect x="72" y="176" width="8" height="8" fill="#000000"/>
<rect x="80" y="176" width="8" height="8" fill="#000000"/>
<rect x="96" y="176" width="8" height="8" fill="#000000"/>
<rect x="104" y="176" width="8" height="8" fill="#000000"/>
<rect x="112" y="176" width="8" height="8" fill="#000000"/>
<rect x="128" y="176" width="8" height="8" fill="#000000"/>
<rect x="136" y="176" width="8" height="8" fill="#000000"/>
<rect x="144" y="176" width="8" height="8" fill="#000000"/>
<rect x="160" y="176" width="8" height="8" fill="#000000"/>
<rect x="168" y="176" width="8" height="8" fill="#000000"/>
<rect x="200" y="176" width="8" height="8" fill="#000000"/>
<rect x="208" y="176" width="8" height="8" fill="#000000"/>
<rect x="216" y="176" width="8" height="8" fill="#000000"/>
<rect x="224" y="176" width="8" height="8" fill="#000000"/>
<rect x="232" y="176" width="8" height="8" fill="#000000"/>
<rect x="8" y="184" width="8" height="8" fill="#000000"/>
<rect x="16" y="184" width="8" height="8" fill="#000000"/>
<rect x="24" y="184" width="8" height="8" fill="#000000"/>
<rect x="32" y="184" width="8" height="8" fill="#000000"/>
<rect x="40" y="184" width="8" height="8" fill="#000000"/>
<rect x="48" y="184" width="8" height="8" fill="#000000"/>
<rect x="56" y="184" width="8" height="8" fill="#000000"/>
<rect x="72" y="184" width="8" height="8" fill="#000000"/>
<rect x="96" y="184" width="8" height="8" fill="#000000"/>
<rect x="104" y="184" width="8" height="8" fill="#000000"/>
<rect x="120" y="184" width="8" height="8" fill="#000000"/>
<rect x="128" y="184" width="8" height="8" fill="#000000"/>
<rect x="136" y="184" width="8" height="8" fill="#000000"/>
<rect x="152" y="184" width="8" height="8" fill="#000000"/>
<rect x="168" y="184" width="8" height="8" fill="#000000"/>
<rect x="184" y="184" width="8" height="8" fill="#000000"/>
<rect x="200" y="184" width="8" height="8" fill="#000000"/>
<rect x="208" y="184" width="8" height="8" fill="#000000"/>
<rect x="224" y="184" width="8" height="8" fill="#000000"/>
<rect x="8" y="192" width="8" height="8" fill="#000000"/>
<rect x="56" y="192" width="8" height="8" fill="#000000"/>
<rect x="80" y="192" width="8" height="8" fill="#000000"/>
<rect x="104" y="192" width="8" height="8" fill="#000000"/>
<rect x="112" y="192" width="8" height="8" fill="#000000"/>
<rect x="120" y="192" width="8" height="8" fill="#000000"/>
<rect x="136" y="192" width="8" height="8" fill="#000000"/>
<rect x="144" y="192" width="8" height="8" fill="#000000"/>
<rect x="152" y="192" width="8" height="8" fill="#000000"/>
<rect x="168" y="192" width="8" height="8" fill="#000000"/>
<rect x="200" y="192" width="8" height="8" fill="#000000"/>
<rect x="208" y="192" width="8" height="8" fill="#000000"/>
<rect x="216" y="192" width="8" height="8" fill="#000000"/>
<rect x="232" y="192" width="8" height="8" fill="#000000"/>
<rect x="8" y="200" width="8" height="8" fill="#000000"/>
<rect x="24" y="200" width="8" height="8" fill="#000000"/>
<rect x="32" y="200" width="8" height="8" fill="#000000"/>
<rect x="40" y="200" width="8" height="8" fill="#000000"/>
<rect x="56" y="200" width="8" height="8" fill="#000000"/>
<rect x="80" y="200" width="8" height="8" fill="#000000"/>
<rect x="96" y="200" width="8" height="8" fill="#000000"/>
<rect x="120" y="200" width="8" height="8" fill="#000000"/>
<rect x="128" y="200" width="8" height="8" fill="#000000"/>
<rect x="152" y="200" width="8" height="8" fill="#000000"/>
<rect x="160" y="200" width="8" height="8" fill="#000000"/>
<rect x="168" y="200" width="8" height="8" fill="#000000"/>
<rect x="176" y="200" width="8" height="8" fill="#000000"/>
<rect x="184" y="200" width="8" height="8" fill="#000000"/>
<rect x="192" y="200" width="8" height="8" fill="#000000"/>
<rect x="200" y="200" width="8" height="8" fill="#000000"/>
<rect x="216" y="200" width="8" height="8" fill="#000000"/>
<rect x="224" y="200" width="8" height="8" fill="#000000"/>
<rect x="8" y="208" width="8" height="8" fill="#000000"/>
<rect x="24" y="208" width="8" height="8" fill="#000000"/>
<rect x="32" y="208" width="8" height="8" fill="#000000"/>
<rect x="40" y="208" width="8" height="8" fill="#000000"/>
<rect x="56" y="208" width="8" height="8" fill="#000000"/>
<rect x="80" y="208" width="8" height="8" fill="#000000"/>
<rect x="88" y="208" width="8" height="8" fill="#000000"/>
<rect x="96" y="208" width="8" height="8" fill="#000000"/>
<rect x="120" y="208" width="8" height="8" fill="#000000"/>
<rect x="128" y="208" width="8" height="8" fill="#000000"/>
<rect x="152" y="208" width="8" height="8" fill="#000000"/>
<rect x="160" y="208" width="8" height="8" fill="#000000"/>
<rect x="168" y="208" width="8" height="8" fill="#000000"/>
<rect x="184" y="208" width="8" height="8" fill="#000000"/>
<rect x="208" y="208" width="8" height="8" fill="#000000"/>
<rect x="216" y="208" width="8" height="8" fill="#000000"/>
<rect x="224" y="208" width="8" height="8" fill="#000000"/>
<rect x="8" y="216" width="8" height="8" fill="#000000"/>
<rect x="24" y="216" width="8" height="8" fill="#000000"/>
<rect x="32" y="216" width="8" height="8" fill="#000000"/>
<rect x="40" y="216" width="8" height="8" fill="#000000"/>
<rect x="56" y="216" width="8" height="8" fill="#000000"/>
<rect x="72" y="216" width="8" height="8" fill="#000000"/>
<rect x="112" y="216" width="8" height="8" fill="#000000"/>
<rect x="144" y="216" width="8" height="8" fill="#000000"/>
<rect x="160" y="216" width="8" height="8" fill="#000000"/>
<rect x="184" y="216" width="8" height="8" fill="#000000"/>
<rect x="192" y="216" width="8" height="8" fill="#000000"/>
<rect x="200" y="216" width="8" height="8" fill="#000000"/>
<rect x="216" y="216" width="8" height="8" fill="#000000"/>
<rect x="232" y="216" width="8" height="8" fill="#000000"/>
<rect x="8" y="224" width="8" height="8" fill="#000000"/>
<rect x="56" y="224" width="8" height="8" fill="#000000"/>
<rect x="88" y="224" width="8" height="8" fill="#000000"/>
<rect x="96" y="224" width="8" height="8" fill="#000000"/>
<rect x="128" y="224" width="8" height="8" fill="#000000"/>
<rect x="176" y="224" width="8" height="8" fill="#000000"/>
<rect x="192" y="224" width="8" height="8" fill="#000000"/>
<rect x="200" y="224" width="8" height="8" fill="#000000"/>
<rect x="208" y="224" width="8" height="8" fill="#000000"/>
<rect x="216" y="224" width="8" height="8" fill="#000000"/>
<rect x="224" y="224" width="8" height="8" fill="#000000"/>
<rect x="8" y="232" width="8" height="8" fill="#000000"/>
<rect x="16" y="232" width="8" height="8" fill="#000000"/>
<rect x="24" y="232" width="8" height="8" fill="#000000"/>
<rect x="32" y="232" width="8" height="8" fill="#000000"/>
<rect x="40" y="232" width="8" height="8" fill="#000000"/>
<rect x="48" y="232" width="8" height="8" fill="#000000"/>
<rect x="56" y="232" width="8" height="8" fill="#000000"/>
<rect x="104" y="232" width="8" height="8" fill="#000000"/>
<rect x="136" y="232" width="8" height="8" fill="#000000"/>
<rect x="168" y="232" width="8" height="8" fill="#000000"/>
<rect x="176" y="232" width="8" height="8" fill="#000000"/>
<rect x="184" y="232" width="8" height="8" fill="#000000"/>
<rect x="192" y="232" width="8" height="8" fill="#000000"/>
<rect x="216" y="232" width="8" height="8" fill="#000000"/>
<rect x="224" y="232" width="8" height="8" fill="#000000"/>
<rect x="232" y="232" width="8" height="8" fill="#000000"/>
</svg>
